<svg xmlns="http://www.w3.org/2000/svg" viewBox="0 0 141.13 29.38"><defs><style>.cls-1{fill:#fff;}</style></defs><g id="Camada_2" data-name="Camada 2"><g id="Camada_3" data-name="Camada 3"><path class="cls-1" d="M1.44,19.2v-6a11.47,11.47,0,0,0,8.64-3.36,11.44,11.44,0,0,0,3.12-8.4H37L34.56,0H11.76V2.4A9.68,9.68,0,0,1,9.12,8.88,9.7,9.7,0,0,1,2.4,11.76H0v5Z"/><path class="cls-1" d="M2.16,29.38,4.08,26V9.94a7.76,7.76,0,0,0,4-2.22,7.71,7.71,0,0,0,2-3.78H43.92L47.28,2H8.4a6.31,6.31,0,0,1-1.67,4.3A6.35,6.35,0,0,1,2.16,8.26Z"/><polygon class="cls-1" points="4.8 26.02 5.28 26.02 5.28 4.9 43.68 4.9 43.68 4.42 4.8 4.42 4.8 26.02"/><polygon class="cls-1" points="2.16 2.02 2.16 4.42 2.4 4.42 2.4 2.26 4.8 2.26 4.8 2.02 2.16 2.02"/><path class="cls-1" d="M139.69,19.2v-6a11.47,11.47,0,0,1-8.64-3.36,11.44,11.44,0,0,1-3.12-8.4H104.17L106.57,0h22.8V2.4A9.68,9.68,0,0,0,132,8.88a9.71,9.71,0,0,0,6.72,2.88h2.4v5Z"/><path class="cls-1" d="M139,29.38,137.05,26V9.94a7.76,7.76,0,0,1-4-2.22,7.79,7.79,0,0,1-2-3.78H97.21L93.85,2h38.88a6.31,6.31,0,0,0,1.67,4.3A6.35,6.35,0,0,0,139,8.26Z"/><polygon class="cls-1" points="136.33 26.02 135.85 26.02 135.85 4.9 97.45 4.9 97.45 4.42 136.33 4.42 136.33 26.02"/><polygon class="cls-1" points="138.73 2.26 138.73 4.66 138.49 4.66 138.49 2.5 136.09 2.5 136.09 2.26 138.73 2.26"/></g></g></svg>